<svg width="14" height="19" viewBox="0 0 14 19" fill="none" xmlns="http://www.w3.org/2000/svg">
<path d="M12 6.66671H11.1667V5.00004C11.1667 2.70004 9.3 0.833374 7 0.833374C4.7 0.833374 2.83333 2.70004 2.83333 5.00004V6.66671H2C1.08333 6.66671 0.333332 7.41671 0.333332 8.33337V16.6667C0.333332 17.5834 1.08333 18.3334 2 18.3334H12C12.9167 18.3334 13.6667 17.5834 13.6667 16.6667V8.33337C13.6667 7.41671 12.9167 6.66671 12 6.66671ZM7 14.1667C6.08333 14.1667 5.33333 13.4167 5.33333 12.5C5.33333 11.5834 6.08333 10.8334 7 10.8334C7.91667 10.8334 8.66667 11.5834 8.66667 12.5C8.66667 13.4167 7.91667 14.1667 7 14.1667ZM9.58333 6.66671H4.41667V5.00004C4.41667 3.57504 5.575 2.41671 7 2.41671C8.425 2.41671 9.58333 3.57504 9.58333 5.00004V6.66671Z" fill="#808080"/>
</svg>
