<svg width="18" height="18" viewBox="0 0 18 18" fill="none" xmlns="http://www.w3.org/2000/svg">
<path d="M9 0.666626C4.4 0.666626 0.666668 4.39996 0.666668 8.99996C0.666668 13.6 4.4 17.3333 9 17.3333C13.6 17.3333 17.3333 13.6 17.3333 8.99996C17.3333 4.39996 13.6 0.666626 9 0.666626ZM9 3.16663C10.3833 3.16663 11.5 4.28329 11.5 5.66663C11.5 7.04996 10.3833 8.16663 9 8.16663C7.61667 8.16663 6.5 7.04996 6.5 5.66663C6.5 4.28329 7.61667 3.16663 9 3.16663ZM9 15C6.91667 15 5.075 13.9333 4 12.3166C4.025 10.6583 7.33333 9.74996 9 9.74996C10.6583 9.74996 13.975 10.6583 14 12.3166C12.925 13.9333 11.0833 15 9 15Z" fill="#808080"/>
</svg>
